<?xml version="1.0" standalone="no"?>
<!DOCTYPE svg PUBLIC "-//W3C//DTD SVG 20010904//EN"
 "http://www.w3.org/TR/2001/REC-SVG-20010904/DTD/svg10.dtd">
<svg version="1.0" xmlns="http://www.w3.org/2000/svg"
 width="512.000000pt" height="512.000000pt" viewBox="0 0 512.000000 512.000000"
 preserveAspectRatio="xMidYMid meet">
<metadata>
Created by potrace 1.14, written by Peter Selinger 2001-2017
</metadata>
<g transform="translate(0.000000,512.000000) scale(0.100000,-0.100000)"
fill="#000000" stroke="none">
<path d="M1116 5109 c-494 -65 -923 -429 -1060 -902 -53 -182 -51 -123 -51
-1647 0 -1524 -2 -1465 51 -1647 111 -382 432 -716 809 -842 212 -70 102 -66
1695 -66 1593 0 1483 -4 1695 66 377 126 698 460 809 842 53 182 51 123 51
1647 0 1524 2 1465 -51 1647 -111 382 -432 717 -809 842 -212 70 -87 65 -1655
67 -789 1 -1445 -2 -1484 -7z m1579 -624 c238 -50 440 -252 490 -490 95 -454
-306 -855 -760 -760 -182 38 -352 170 -434 335 -94 192 -94 388 0 580 126 255
419 395 704 335z m-1300 -1300 c288 -60 505 -329 505 -625 0 -349 -291 -640
-640 -640 -349 0 -640 291 -640 640 0 237 141 465 350 569 139 68 279 87 425
56z m2600 0 c288 -60 505 -329 505 -625 0 -349 -291 -640 -640 -640 -349 0
-640 291 -640 640 0 237 141 465 350 569 139 68 279 87 425 56z m-1300 -1300
c288 -60 505 -329 505 -625 0 -349 -291 -640 -640 -640 -296 0 -565 217 -625
505 -83 397 216 770 620 774 39 0 102 -6 140 -14z"/>
</g>
</svg>
